<svg height='500px' width='500px'  fill="#2168db" xmlns="http://www.w3.org/2000/svg" xmlns:xlink="http://www.w3.org/1999/xlink" version="1.1" x="0px" y="0px" viewBox="0 0 53.5 67.5" style="enable-background:new 0 0 53.5 67.5;" xml:space="preserve"><g><path d="M38.5,41c1,2,5,3,7,3s6-2,6-6s-3-5-4-6s-12-3-15-3c2-1,4-1,6-1s7,2,9,1s5.5-2.5,5.5-6.5s-3-7-5-7s-4,3-4,3s2-2,4-2s3,3,3,5   s-0.9,4.38-4,5c-2.5,0.5-4,0-4,0s-6.5-2.5-11,0c4-3,1-15,1-15s2-2,3-3s-9-8-9-8h-0.5c0,0-10,7-9,8s3,3,3,3s-3,12,1,15   c-4.5-2.5-11,0-11,0s-1.5,0.5-4,0c-3.1-0.62-4-3-4-5s1-5,3-5s4,2,4,2s-2-3-4-3s-5,3-5,7S4,28,6,29s7-1,9-1s4,0,6,1c-3,0-14,2-15,3   s-4,2-4,6s4,6,6,6s6-1,7-3s-4-5-4-5s3,4,2,5s-3,1-5,1s-4-2-4-4s3-4,5-5s12-2,12-2s-4,6-4,11s-1,10-2,12s-4,5-6,5s-7-1-7-2   c0,3,5,5,11,3c5-3,6-13,6-13s0.5-13,3.5-14c0,7,3.5,14,3.5,14s-4,8-4,12s3,8,3,8s-2-4-1-8c0.92-3.67,1.83-7.32,2.75-7.91   c0.92,0.59,1.83,4.24,2.75,7.91c1,4-1,8-1,8s3-4,3-8s-4-12-4-12s3-7,3-14c3,1,4,14,4,14s1,10,6,13c6,2,11,0,11-3c0,1-5,2-7,2   s-5-3-6-5s-2-7-2-12s-4-11-4-11s10,1,12,2s5,3,5,5s-2,4-4,4s-4,0-5-1s2-5,2-5S37.5,39,38.5,41z M26.49,42c0,0-1.99-7-1.99-9   c1.74,0,0.45,0,0.09,0c0.41,0,2.16,0,3.91,0C28.5,35,26.49,42,26.49,42z"></path><path d="M25,67.5c-0.15,0-0.3-0.07-0.4-0.2c-0.13-0.17-3.1-4.18-3.1-8.3c0-3.74,3.28-10.65,3.94-12   c-0.58-1.21-3.16-6.95-3.42-13.02c-1.53,1.95-2.36,8.71-2.52,13.04c-0.04,0.45-1.09,10.32-6.24,13.41   c-0.03,0.02-0.06,0.03-0.1,0.05c-3.83,1.28-7.76,1.05-10.01-0.57C2.09,59.14,1.5,58.11,1.5,57c0-0.28,0.22-0.5,0.5-0.5   s0.5,0.22,0.5,0.5c0.33,0.53,4.35,1.5,6.5,1.5c1.76,0,4.62-2.86,5.55-4.72c0.96-1.91,1.95-6.84,1.95-11.78c0-4,2.42-8.52,3.53-10.4   c-3.25,0.35-9.4,1.14-10.81,1.84C7.04,34.54,4.5,36.38,4.5,38c0,1.73,1.77,3.5,3.5,3.5c1.86,0,3.79,0,4.65-0.85   c0.36-0.36-0.64-2.47-2.05-4.35c-0.14-0.19-0.13-0.46,0.03-0.63c0.16-0.18,0.42-0.22,0.63-0.09c0.55,0.33,5.36,3.31,4.19,5.65   C14.3,43.51,9.96,44.5,8,44.5c-2.27,0-6.5-2.23-6.5-6.5c0-3.4,2.01-4.8,3.34-5.73c0.33-0.23,0.62-0.44,0.81-0.62   c0.96-0.96,8.49-2.41,12.86-2.94C17.36,28.5,16.2,28.5,15,28.5c-0.66,0-1.77,0.26-2.94,0.53c-2.27,0.53-4.84,1.13-6.28,0.41   l-0.33-0.17C3.41,28.28,0,26.6,0,22.5C0,18.15,3.29,15,5.5,15c2.24,0,4.33,3.09,4.42,3.22c0.14,0.21,0.1,0.5-0.1,0.66   c-0.2,0.16-0.49,0.15-0.67-0.03C9.13,18.84,7.27,17,5.5,17C3.95,17,3,19.62,3,21.5c0,1.42,0.47,3.88,3.6,4.51   c2.32,0.46,3.73,0.02,3.75,0.02c0.22-0.09,5.21-1.97,9.57-0.71c-2.05-4.04-0.35-12.03,0.03-13.66l-2.8-2.8   c-0.16-0.16-0.23-0.38-0.21-0.61c0.14-1.63,7.14-6.65,9.28-8.15C26.3,0.03,26.4,0,26.5,0H27c0.1,0,0.2,0.03,0.29,0.09   c2.14,1.5,9.14,6.52,9.28,8.15c0.02,0.24-0.05,0.46-0.21,0.61l-2.8,2.8c0.38,1.63,2.09,9.61,0.03,13.66   c4.36-1.26,9.36,0.63,9.6,0.72l0,0c0,0,1.41,0.44,3.72-0.02c3.25-0.65,3.6-3.37,3.6-4.51c0-1.88-0.95-4.5-2.5-4.5   c-1.77,0-3.63,1.84-3.65,1.85c-0.18,0.18-0.47,0.2-0.67,0.03c-0.2-0.16-0.24-0.45-0.1-0.66C43.67,18.09,45.76,15,48,15   c2.21,0,5.5,3.15,5.5,7.5c0,4.1-3.41,5.78-5.44,6.78l-0.33,0.17c-1.44,0.72-4.01,0.12-6.28-0.41c-1.17-0.27-2.28-0.53-2.94-0.53   c-1.2,0-2.36,0-3.51,0.21c4.37,0.53,11.9,1.98,12.86,2.94c0.18,0.18,0.47,0.39,0.81,0.62C49.99,33.2,52,34.6,52,38   c0,4.27-4.23,6.5-6.5,6.5c-1.96,0-6.3-0.99-7.45-3.28c-1.17-2.35,3.64-5.32,4.19-5.65c0.2-0.12,0.47-0.08,0.63,0.09   c0.16,0.18,0.17,0.44,0.03,0.63c-1.41,1.88-2.4,3.99-2.05,4.35c0.85,0.85,2.78,0.85,4.65,0.85c1.73,0,3.5-1.77,3.5-3.5   c0-1.62-2.54-3.46-4.72-4.55c-1.41-0.7-7.56-1.49-10.81-1.84C34.58,33.48,37,38,37,42c0,4.93,0.99,9.86,1.95,11.78   c0.93,1.87,3.79,4.72,5.55,4.72c2.13,0,6.09-0.95,6.5-1.55c0-0.03,0.01-0.06,0.01-0.08c0.03-0.24,0.24-0.4,0.49-0.4   c0.28,0,0.49,0.26,0.49,0.53c0,1.11-0.59,2.14-1.65,2.91c-2.25,1.62-6.18,1.84-10.01,0.57c-0.03-0.01-0.07-0.03-0.1-0.05   c-5.16-3.09-6.2-12.96-6.24-13.38c-0.34-4.35-1.42-11.15-3.02-13.09c-0.22,6.08-2.45,11.83-2.93,13.02C28.69,48.29,32,55.24,32,59   c0,4.12-2.97,8.13-3.1,8.3c-0.16,0.21-0.44,0.26-0.66,0.13c-0.22-0.14-0.3-0.42-0.18-0.65c0.02-0.04,1.9-3.89,0.96-7.66   c-0.67-2.66-1.55-6.2-2.26-7.31c-0.72,1.11-1.6,4.64-2.27,7.31c-0.94,3.78,0.94,7.62,0.96,7.66c0.12,0.23,0.04,0.51-0.18,0.65   C25.18,67.48,25.09,67.5,25,67.5z M26.75,50.59c0.09,0,0.19,0.03,0.27,0.08c1.01,0.65,1.8,3.53,2.97,8.21   c0.34,1.37,0.35,2.73,0.21,3.94c0.46-1.17,0.8-2.5,0.8-3.82c0-3.84-3.91-11.7-3.95-11.78c-0.07-0.13-0.07-0.29-0.01-0.42   C27.07,46.73,30,39.81,30,33c0-0.16,0.08-0.31,0.21-0.41c0.13-0.09,0.3-0.12,0.45-0.07C33.88,33.6,34.89,45.6,35,46.96   c0.01,0.09,1.03,9.71,5.71,12.58c4.27,1.41,7.54,0.64,9.05-0.45c0.26-0.19,0.55-0.44,0.78-0.76c-1.96,0.81-5.3,1.16-6.04,1.16   c-2.29,0-5.4-3.18-6.45-5.28C37.06,52.23,36,47.27,36,42c0-4.79-3.88-10.66-3.92-10.72c-0.11-0.16-0.11-0.37-0.01-0.54   s0.29-0.26,0.48-0.24c0.41,0.04,10.12,1.02,12.17,2.05C45.96,33.17,50,35.39,50,38c0,2.27-2.23,4.5-4.5,4.5   c-2.07,0-4.21,0-5.35-1.15c-0.69-0.69-0.24-2.07,0.46-3.36c-1.11,0.96-2.02,2.06-1.66,2.78c0.83,1.66,4.44,2.72,6.55,2.72   c1.57,0,5.5-1.64,5.5-5.5c0-2.88-1.68-4.06-2.91-4.91c-0.37-0.26-0.7-0.49-0.94-0.73c-0.82-0.8-11.36-2.85-14.65-2.85   c-0.23,0-0.43-0.16-0.49-0.39c-0.05-0.23,0.06-0.46,0.26-0.56c2.11-1.05,4.2-1.05,6.22-1.05c0.78,0,1.89,0.26,3.17,0.56   c2,0.47,4.49,1.05,5.61,0.49l0.34-0.17c1.95-0.96,4.89-2.41,4.89-5.89c0-2.65-1.39-4.82-2.83-5.86c1.24,1.07,1.83,3.24,1.83,4.86   c0,2.89-1.65,4.94-4.4,5.49c-2.6,0.52-4.19,0.01-4.26-0.02c-0.08-0.03-6.36-2.39-10.6-0.04c-0.23,0.13-0.52,0.06-0.66-0.17   c-0.14-0.22-0.09-0.51,0.12-0.67c3.06-2.3,1.63-11.23,0.81-14.48c-0.04-0.17,0.01-0.35,0.13-0.47l2.9-2.9   C35.16,7.27,30.84,3.8,26.84,1h-0.18c-3.99,2.8-8.32,6.27-8.7,7.25l2.9,2.9c0.12,0.12,0.17,0.3,0.13,0.47   c-0.81,3.25-2.25,12.18,0.81,14.48c0.21,0.16,0.26,0.45,0.12,0.67c-0.14,0.22-0.43,0.29-0.66,0.17   c-4.24-2.35-10.52,0.01-10.58,0.03C10.59,27,9.01,27.51,6.4,26.99C3.65,26.44,2,24.39,2,21.5c0-1.61,0.59-3.79,1.83-4.86   C2.39,17.68,1,19.85,1,22.5c0,3.47,2.94,4.93,4.89,5.89l0.34,0.17c1.12,0.56,3.61-0.02,5.61-0.49c1.28-0.3,2.39-0.56,3.17-0.56   c2.02,0,4.12,0,6.22,1.05c0.21,0.1,0.32,0.34,0.26,0.56S21.23,29.5,21,29.5c-3.28,0-13.82,2.05-14.65,2.85   c-0.25,0.25-0.57,0.47-0.94,0.73C4.18,33.94,2.5,35.12,2.5,38c0,3.86,3.93,5.5,5.5,5.5c2.12,0,5.72-1.06,6.55-2.72   c0.36-0.72-0.55-1.82-1.66-2.78c0.69,1.29,1.15,2.67,0.46,3.36C12.21,42.5,10.07,42.5,8,42.5c-2.27,0-4.5-2.23-4.5-4.5   c0-2.61,4.04-4.83,5.28-5.45c2.06-1.03,11.76-2.01,12.17-2.05c0.19-0.02,0.38,0.07,0.48,0.24c0.1,0.17,0.1,0.37-0.01,0.54   C21.38,31.34,17.5,37.21,17.5,42c0,5.27-1.06,10.23-2.05,12.22C14.4,56.32,11.29,59.5,9,59.5c-0.74,0-4.08-0.35-6.04-1.16   c0.23,0.32,0.52,0.57,0.78,0.76c1.51,1.09,4.78,1.85,9.05,0.45c4.69-2.87,5.7-12.5,5.71-12.59c0.08-2.2,0.67-13.37,3.84-14.42   c0.15-0.05,0.32-0.03,0.45,0.07C22.92,32.69,23,32.84,23,33c0,6.8,3.41,13.71,3.45,13.78c0.07,0.14,0.07,0.31,0,0.45   C26.41,47.3,22.5,55.16,22.5,59c0,1.32,0.35,2.65,0.8,3.82c-0.14-1.21-0.13-2.57,0.21-3.94c1.17-4.68,1.95-7.56,2.97-8.21   C26.56,50.62,26.66,50.59,26.75,50.59z M48,16L48,16L48,16z M26.49,42.5C26.49,42.5,26.49,42.5,26.49,42.5   c-0.22,0-0.42-0.15-0.48-0.36C25.93,41.85,24,35.04,24.01,33c0-0.28,0.22-0.5,0.5-0.5h0c0.19,0,0.36,0,0.51,0c0.18,0,0.35,0,0.37,0   l0,0l3.12,0c0.13,0,0.26,0.05,0.35,0.15c0.09,0.09,0.15,0.22,0.15,0.35c0,2.05-1.95,8.85-2.03,9.13   C26.91,42.35,26.72,42.5,26.49,42.5z M25.04,33.5c0.16,1.57,0.94,4.66,1.46,6.61c0.53-1.95,1.31-5.04,1.48-6.61L25.04,33.5z"></path></g></svg>
